<svg width="99" height="22" viewBox="0 0 99 22" fill="none" xmlns="http://www.w3.org/2000/svg">
<path fill-rule="evenodd" clip-rule="evenodd" d="M13.8219 15.6815C13.8219 19.1368 11.065 21.6426 6.68591 21.6426C4.14669 21.5724 1.74036 20.4944 0 18.6476L1.46454 17.0309C2.83531 18.3336 4.44818 19.5997 6.65692 19.5997C9.11032 19.5997 11.7555 18.2264 11.7555 15.7606C11.7555 13.7126 10.1247 12.3767 6.69784 11.3233C2.79269 10.1321 0.808992 8.51546 0.808992 5.47617C0.808992 2.46836 3.35958 0 6.99365 0C9.70791 0 11.406 1.15462 13.0589 2.63003L11.6191 4.2254C10.1699 2.94399 8.78894 2.07526 7.09424 2.07526C4.99205 2.07526 2.91714 3.42814 2.91714 5.37577C2.91714 7.14046 3.93328 8.26446 7.52047 9.36037C10.8059 10.3703 13.8219 11.9351 13.8219 15.6806V15.6815ZM31.5473 1.99285C31.5473 2.94049 32.3167 3.70871 33.2659 3.70871C33.7218 3.70893 34.159 3.52823 34.4813 3.20639C34.8037 2.88456 34.9847 2.44799 34.9845 1.99285C34.9845 1.04521 34.215 0.276995 33.2659 0.276995C32.3167 0.276995 31.5473 1.04521 31.5473 1.99285ZM48.1782 0.628674H46.1066V21.3037H48.1782V0.628674ZM53.0128 20.6155C53.0128 20.6155 54.288 21.6493 58.5367 21.6493L58.5341 21.6485C62.7283 21.6485 66.1322 18.587 66.1322 14.4042C66.1322 10.2213 62.7308 7.17183 58.5367 7.17183C57.347 7.14003 56.1659 7.38105 55.0842 7.87634V0.628674H53.0128V20.6155ZM68.5508 14.4223C68.5505 18.607 71.949 21.9996 76.1419 22.0001C80.335 22.0001 83.7344 18.6078 83.7348 14.4229C83.7348 10.2382 80.3359 6.84586 76.143 6.8457C71.9502 6.84555 68.5511 10.2377 68.5508 14.4223ZM96.296 21.3101H99L93.0217 14.2028L98.5968 7.53711H95.9082L91.6739 12.5998L87.4184 7.53711H84.7144L90.3296 14.2121L84.393 21.3101H87.0809L91.6765 15.8152L96.296 21.3101ZM76.155 8.89146C73.9189 8.89112 71.9027 10.2354 71.0469 12.2973C70.1909 14.3593 70.6638 16.7328 72.245 18.311C73.8262 19.8892 76.2042 20.3613 78.27 19.507C80.3359 18.6527 81.6827 16.6404 81.6823 14.4085C81.6818 11.3617 79.2075 8.89193 76.155 8.89146ZM58.5364 9.24374C57.2994 9.2611 56.0962 9.65017 55.0839 10.3602V18.8937C56.1569 19.4142 57.3456 19.6515 58.5364 19.583C61.5866 19.583 64.0604 17.4556 64.0604 14.4134C64.0604 11.3712 61.5841 9.24289 58.5339 9.24289L58.5364 9.24374ZM39.2026 0.628906H41.2741V21.3039H39.2026V0.628906ZM26.4266 21.3055L19.1806 14.0731L25.7403 7.52148H28.6694L22.1097 14.0731L29.3557 21.3055H26.4266ZM17.1025 0.628674V21.3037H19.174V0.628674H17.1025ZM32.3029 21.3055H34.3744V7.52148H32.3029V21.3055Z" fill="white"/>
</svg>
